<svg width="190" height="28" viewBox="0 0 190 28" fill="none" xmlns="http://www.w3.org/2000/svg">
<path d="M16.6094 12.3125V17.1953H6.33594V27H0.90625V0.828125H18.7578V5.71094H6.33594V12.3125H16.6094ZM37.2734 0.242188C39.1484 0.242188 40.9062 0.580729 42.5469 1.25781C44.1875 1.90885 45.6328 2.84635 46.8828 4.07031C48.1589 5.26823 49.1484 6.70052 49.8516 8.36719C50.5807 10.0339 50.9453 11.8828 50.9453 13.9141C50.9453 15.9453 50.5807 17.7943 49.8516 19.4609C49.1484 21.1276 48.1589 22.5729 46.8828 23.7969C45.6328 24.9948 44.1875 25.9323 42.5469 26.6094C40.9062 27.2604 39.1484 27.5859 37.2734 27.5859C35.3984 27.5859 33.6276 27.2604 31.9609 26.6094C30.3203 25.9323 28.862 24.9948 27.5859 23.7969C26.3359 22.5729 25.3464 21.1276 24.6172 19.4609C23.9141 17.7943 23.5625 15.9453 23.5625 13.9141C23.5625 11.8828 23.9141 10.0339 24.6172 8.36719C25.3464 6.70052 26.3359 5.26823 27.5859 4.07031C28.862 2.84635 30.3203 1.90885 31.9609 1.25781C33.6276 0.580729 35.3984 0.242188 37.2734 0.242188ZM37.2734 5.35938C35.7109 5.35938 34.3047 5.73698 33.0547 6.49219C31.8307 7.2474 30.8672 8.26302 30.1641 9.53906C29.4609 10.8151 29.1094 12.2734 29.1094 13.9141C29.1094 15.5286 29.4609 16.987 30.1641 18.2891C30.8672 19.5651 31.8307 20.5807 33.0547 21.3359C34.3047 22.0651 35.7109 22.4297 37.2734 22.4297C38.8359 22.4297 40.2292 22.0651 41.4531 21.3359C42.6771 20.5807 43.6406 19.5651 44.3438 18.2891C45.0469 16.987 45.3984 15.5286 45.3984 13.9141C45.3984 12.2734 45.0469 10.8151 44.3438 9.53906C43.6406 8.26302 42.6771 7.2474 41.4531 6.49219C40.2292 5.73698 38.8359 5.35938 37.2734 5.35938ZM67.2344 0.828125C68.4583 0.828125 69.6562 0.997396 70.8281 1.33594C72 1.67448 73.0547 2.19531 73.9922 2.89844C74.9557 3.60156 75.7109 4.48698 76.2578 5.55469C76.8307 6.59635 77.1172 7.84635 77.1172 9.30469C77.1172 10.8411 76.7266 12.1693 75.9453 13.2891C75.1901 14.3828 74.1875 15.2422 72.9375 15.8672C71.6875 16.4661 70.3333 16.8177 68.875 16.9219L78.2891 27H71.1406L62.0391 16.2969V27H56.6094V0.828125H67.2344ZM62.0391 5.90625V12.5078C62.6641 12.7161 63.3542 12.8854 64.1094 13.0156C64.8906 13.1198 65.6719 13.1719 66.4531 13.1719C68.0156 13.1719 69.2526 12.8594 70.1641 12.2344C71.1016 11.5833 71.5703 10.6719 71.5703 9.5C71.5703 8.22396 71.0755 7.3125 70.0859 6.76562C69.1224 6.19271 67.9375 5.90625 66.5312 5.90625H62.0391Z" fill="#FE5B00" fill-opacity="0.55"/>
<path d="M115.867 0.828125L107.039 27H103.289L97.4688 10.1641L91.6484 27H87.8984L79.1875 0.828125H85.3594L90.2031 17.3516L95.7109 0.828125H99.3438L104.773 17.3516L109.695 0.828125H115.867ZM137.156 11.4531V15.8672H125.594V22.1953H138.68V27H120.164V0.828125H138.68V5.51562H125.594V11.4531H137.156ZM151.141 0.828125V22.1172H164.227V27H145.711V0.828125H151.141ZM176.023 0.828125V22.1172H189.109V27H170.594V0.828125H176.023Z" fill="#FFFFFF"/>
</svg>
