<svg width="286" height="50" viewBox="0 0 286 50" fill="none" xmlns="http://www.w3.org/2000/svg">
<path fill-rule="evenodd" clip-rule="evenodd" d="M37.87 27.38C37.73 24.49 35.76 22.09 35.76 22.09L34.73 18.91C35.79 14.61 35.1 13.44 34.2 11.93C34.14 11.82 34.07 11.72 34.01 11.61C33.04 9.93 30.47 9.4 29.66 9.26C27.54 8.92 27.38 8.49 24.68 6.77C23.21 5.83 23.18 5.07 23.18 5.07C23.79 4.59 23.67 2.79 23.67 2.79C24.95 3.53 24.79 0 24.79 0H14.08C14.08 0 13.92 3.54 15.2 2.79C15.2 2.79 15.08 4.59 15.69 5.07C15.69 5.07 15.66 5.83 14.19 6.77C11.5 8.48 11.35 8.92 9.21001 9.26C8.39001 9.4 5.83001 9.93 4.86001 11.61C4.80001 11.72 4.73001 11.82 4.67001 11.93C3.77001 13.44 3.08001 14.61 4.14001 18.91L3.11001 22.09C3.11001 22.09 1.15001 24.49 1.01001 27.38C0.760012 32 0.510012 35.36 0.320012 37.91C-0.0399884 42.69 -0.179988 44.59 0.350012 46.43C1.00001 48.69 0.920012 49.93 0.920012 49.93H3.52001C3.52001 49.93 2.71001 46 3.20001 45.64C3.68001 45.28 3.78001 45.35 3.98001 45.84C3.98001 45.86 3.99001 45.87 4.00001 45.88C4.20001 46.34 4.31001 46.6 4.71001 46.46C5.12001 46.31 5.44001 45.65 4.90001 44.51C4.36001 43.36 4.47001 42.13 3.23001 41.46L5.37001 35.55L8.98001 23.64C8.98001 23.64 11.76 26.82 10.8 31.44C10.8 31.44 10.51 34.76 10.56 35.62C11.72 35.01 13.11 34.76 14.4 35.08C17.96 35.95 19.15 39.63 19.4 43.32C19.69 39.59 20.73 35.97 24.4 35.08C25.7 34.76 27.11 35.02 28.31 35.67C28.38 34.9 28.08 31.45 28.08 31.45C27.12 26.82 29.9 23.65 29.9 23.65L33.51 35.56L35.65 41.47C34.42 42.14 34.53 43.38 33.98 44.52C33.44 45.66 33.76 46.32 34.17 46.47C34.59 46.62 34.72 46.28 34.85 45.96C34.99 45.59 35.13 45.23 35.69 45.65C36.17 46.01 35.37 49.94 35.37 49.94H37.97C37.97 49.94 37.89 48.69 38.54 46.44C39.06 44.6 38.92 42.68 38.56 37.89C38.37 35.34 38.12 31.97 37.88 27.38H37.87ZM122.75 28.44C122.75 30.13 122.46 31.69 121.88 33.11C121.3 34.53 120.49 35.76 119.46 36.79C118.42 37.83 117.2 38.63 115.79 39.2C114.38 39.77 112.84 40.06 111.17 40.06H104.35C102.69 40.06 101.14 39.77 99.72 39.2C98.3 38.63 97.07 37.82 96.04 36.79C95.01 35.76 94.2 34.53 93.61 33.11C93.02 31.69 92.73 30.13 92.73 28.44V23.13C92.73 21.45 93.02 19.89 93.61 18.47C94.2 17.04 95.01 15.81 96.04 14.79C97.07 13.76 98.3 12.96 99.72 12.38C101.14 11.8 102.68 11.51 104.35 11.51H111.17C112.84 11.51 114.38 11.8 115.79 12.38C117.2 12.96 118.43 13.76 119.46 14.79C120.49 15.82 121.3 17.04 121.88 18.47C122.46 19.9 122.75 21.45 122.75 23.13V28.44ZM69.51 16.93H89.7V11.89H67.01C66.65 11.89 66.31 11.95 66 12.08C65.69 12.21 65.42 12.39 65.19 12.62C64.96 12.85 64.79 13.12 64.66 13.44C64.53 13.75 64.46 14.08 64.46 14.43V39.68H69.5V16.92L69.51 16.93ZM155.07 24.31C155.35 23.41 155.5 22.38 155.5 21.23V18.02C155.5 17.4 155.39 16.73 155.18 16.02C154.97 15.31 154.62 14.65 154.13 14.04C153.65 13.43 153.02 12.92 152.24 12.51C151.46 12.1 150.51 11.9 149.39 11.9H130.27C129.91 11.9 129.57 11.96 129.26 12.09C128.95 12.22 128.68 12.4 128.46 12.63C128.23 12.86 128.06 13.13 127.93 13.45C127.8 13.76 127.74 14.09 127.74 14.44V39.69H132.78V16.92H149.4C149.51 16.92 149.62 16.92 149.74 16.94C149.86 16.96 149.98 16.99 150.09 17.07C150.2 17.14 150.29 17.25 150.36 17.4C150.43 17.55 150.47 17.76 150.47 18.05V21.23C150.47 21.89 150.37 22.48 150.16 22.98C149.95 23.49 149.66 23.93 149.28 24.29C148.9 24.65 148.45 24.94 147.93 25.15C147.41 25.36 146.83 25.49 146.19 25.55H134.8V30.59H138.42L148.92 39.68H156.71L146.19 30.59C146.81 30.59 147.47 30.52 148.18 30.38C148.89 30.23 149.58 30.01 150.27 29.69C150.96 29.37 151.62 28.97 152.26 28.48C152.89 27.99 153.45 27.4 153.93 26.71C154.42 26.02 154.8 25.22 155.09 24.32L155.07 24.31ZM196.03 11.89L191.38 37.93C191.28 38.45 191.05 38.89 190.68 39.27C190.32 39.65 189.88 39.88 189.36 39.99C188.83 40.08 188.33 40.02 187.86 39.81C187.39 39.6 187.02 39.28 186.74 38.84L177.52 23.69L168.28 38.84C168.06 39.22 167.76 39.51 167.38 39.71C167 39.92 166.59 40.02 166.15 40.02C165.54 40.02 165 39.82 164.54 39.44C164.07 39.05 163.79 38.55 163.69 37.93L159 11.89H164.11L167.44 30.24L175.39 17.57C175.61 17.19 175.91 16.91 176.29 16.7C176.67 16.49 177.08 16.39 177.52 16.39C177.96 16.39 178.37 16.5 178.74 16.7C179.12 16.91 179.42 17.2 179.67 17.57L187.58 30.24L190.91 11.89H196.02H196.03ZM207.27 39.68H225.45V34.64H207.31C206.64 34.64 206.13 34.47 205.78 34.12C205.43 33.77 205.26 33.27 205.26 32.61V16.93H225.45V11.89H202.76C202.4 11.89 202.06 11.95 201.76 12.08C201.45 12.21 201.18 12.39 200.96 12.62C200.73 12.85 200.55 13.12 200.42 13.44C200.29 13.75 200.23 14.08 200.23 14.43V32.6C200.23 33.9 200.47 35.01 200.94 35.9C201.41 36.79 202 37.53 202.7 38.09C203.4 38.65 204.17 39.05 205 39.3C205.82 39.55 206.59 39.67 207.28 39.67L207.27 39.68ZM255.83 39.68H232.85C232.49 39.68 232.15 39.61 231.84 39.49C231.53 39.36 231.26 39.18 231.04 38.95C230.81 38.73 230.63 38.46 230.5 38.15C230.37 37.84 230.31 37.5 230.31 37.14V11.89H235.34V34.64H255.82V39.68H255.83ZM262.07 39.68H285.05V34.64H264.57V11.89H259.54V37.14C259.54 37.5 259.6 37.84 259.73 38.15C259.86 38.46 260.04 38.73 260.27 38.95C260.49 39.18 260.76 39.36 261.07 39.49C261.38 39.62 261.72 39.68 262.08 39.68H262.07ZM17.17 5.72C17.28 5.5 17.72 5.67 17.94 5.45C17.86 5.22 17.89 4.9 17.94 4.46C17.5 4.36 17.06 4.11 17.17 3.9C17.29 3.67 17.78 3.88 17.98 3.61C18.27 3.23 18.69 3.4 18.76 3.86C19.26 3.81 19.86 3.83 20.1 3.86C20.1 3.83 20.1 3.81 20.11 3.78C20.21 3.43 20.6 3.23 20.89 3.62C21 3.77 21.27 3.78 21.43 3.8C21.47 3.8 21.51 3.8 21.53 3.8C22.05 3.9 21.51 4.33 20.94 4.48C21.01 4.95 21.01 5.26 20.94 5.46C21.1 5.61 21.44 5.59 21.53 5.61C22.16 5.73 21.24 6.43 20.35 6.33C20.15 6.31 20.08 6.1 20.08 5.87C19.53 5.91 19.11 5.92 18.79 5.89C18.79 6.05 18.75 6.2 18.64 6.28C18.4 6.46 16.95 6.12 17.16 5.71L17.17 5.72ZM17.34 6.73C17.34 6.73 17.4 6.73 17.44 6.73C17.6 6.73 17.86 6.71 17.98 6.56C18.27 6.17 18.69 6.35 18.77 6.81C19.19 6.76 19.69 6.76 20.11 6.81C20.11 6.77 20.11 6.76 20.11 6.72C20.21 6.37 20.6 6.17 20.89 6.56C20.95 6.64 21.13 6.67 21.31 6.7C21.61 6.75 21.9 6.81 21.65 7.09C21.58 7.16 21.26 7.32 20.93 7.41C20.98 7.86 21.01 8.18 20.93 8.4C21.11 8.54 21.6 8.49 21.69 8.67C21.9 9.08 20.44 9.42 20.21 9.24C20.14 9.19 20.09 9 20.08 8.83C19.87 8.85 19.73 8.83 19.63 8.83C19.55 8.83 19.49 8.83 19.42 8.83C19.18 8.8 18.97 8.79 18.79 8.79C18.81 9.18 18.48 9.52 17.42 9.05C17.01 8.87 17.1 8.61 17.33 8.57C17.43 8.55 17.76 8.57 17.92 8.42C17.87 8.22 17.88 7.91 17.92 7.42C17.33 7.26 16.73 6.86 17.32 6.74L17.34 6.73ZM117.71 23.13C117.71 22.13 117.55 21.23 117.23 20.43C116.91 19.62 116.47 18.93 115.89 18.36C115.32 17.79 114.62 17.34 113.82 17.02C113.02 16.7 112.12 16.54 111.16 16.54H104.34C103.36 16.54 102.46 16.7 101.66 17.02C100.85 17.34 100.16 17.78 99.58 18.36C99 18.93 98.55 19.63 98.23 20.43C97.91 21.23 97.76 22.14 97.76 23.13V28.44C97.76 29.43 97.92 30.34 98.23 31.14C98.55 31.94 99 32.64 99.58 33.21C100.16 33.78 100.85 34.23 101.66 34.55C102.47 34.86 103.36 35.02 104.34 35.02H111.12C112.1 35.02 113 34.86 113.8 34.55C114.61 34.23 115.3 33.78 115.88 33.21C116.46 32.63 116.91 31.94 117.23 31.14C117.55 30.33 117.71 29.43 117.71 28.44V23.13ZM17.93 10.36C17.36 10.21 16.81 9.78 17.34 9.68C17.36 9.68 17.4 9.68 17.44 9.68C17.6 9.68 17.86 9.66 17.98 9.5C18.27 9.11 18.66 9.31 18.76 9.66C18.77 9.69 18.77 9.72 18.78 9.75C19.19 9.7 19.69 9.7 20.1 9.75C20.22 9.39 20.6 9.09 20.91 9.5C21.02 9.65 21.29 9.67 21.45 9.68C21.49 9.68 21.53 9.68 21.55 9.68C21.78 9.72 21.86 9.99 21.46 10.17C21.25 10.26 21.08 10.31 20.93 10.35C20.93 10.46 20.95 10.56 20.96 10.67C20.99 10.95 21.01 11.17 20.96 11.35C21.04 11.41 21.19 11.44 21.34 11.46C21.63 11.51 21.93 11.57 21.68 11.85C21.56 11.99 20.97 12.21 20.57 12.24C20.55 12.24 20.53 12.24 20.51 12.24H20.57C20.68 12.24 20.8 12.31 20.91 12.45C21.02 12.6 21.29 12.61 21.45 12.62C21.49 12.62 21.53 12.62 21.55 12.63C22.08 12.73 21.53 13.16 20.95 13.31C21 13.71 21.01 14.04 20.92 14.27C20.99 14.34 21.16 14.38 21.33 14.41C21.63 14.47 21.92 14.52 21.67 14.8C21.52 14.97 20.06 15.59 20.09 14.71C19.54 14.75 19.13 14.76 18.81 14.74C18.81 15.05 18.61 15.17 18.36 15.18C18.56 15.18 18.73 15.36 18.77 15.64C19.19 15.59 19.7 15.59 20.12 15.64C20.12 15.61 20.12 15.59 20.12 15.56C20.22 15.21 20.61 15.01 20.9 15.39C20.96 15.47 21.14 15.51 21.32 15.54C21.62 15.59 21.91 15.64 21.66 15.92C21.59 16 21.27 16.16 20.94 16.25C20.99 16.69 21.03 17.01 20.94 17.24C21.02 17.3 21.17 17.33 21.32 17.35C21.61 17.4 21.91 17.46 21.66 17.74C21.56 17.85 20.98 18.1 20.57 18.12C20.68 18.12 20.8 18.19 20.9 18.33C21.01 18.48 21.28 18.49 21.44 18.51C21.48 18.51 21.52 18.51 21.54 18.51C22.07 18.61 21.51 19.05 20.94 19.19C20.99 19.67 20.99 19.98 20.94 20.17C21.04 20.26 21.2 20.3 21.33 20.31C22.25 20.39 21.43 21.01 20.61 21.05C20.7 21.07 20.8 21.14 20.9 21.26C21.01 21.41 21.28 21.43 21.44 21.44C21.48 21.44 21.52 21.44 21.54 21.44C21.74 21.48 21.78 21.65 21.66 21.79C21.57 21.89 21.25 22.02 20.93 22.1C20.98 22.54 21 22.87 20.93 23.1C21.05 23.22 21.29 23.24 21.43 23.24C21.47 23.24 21.5 23.24 21.53 23.25C21.73 23.28 21.77 23.46 21.65 23.6C21.6 23.66 21.51 23.7 21.44 23.74C20.43 24.19 20.08 23.9 20.06 23.54C19.86 23.54 19.63 23.54 19.34 23.52C19.13 23.5 18.95 23.5 18.79 23.5C18.85 24.42 17.37 23.79 17.21 23.61C17.09 23.48 17.14 23.3 17.34 23.26C17.43 23.24 17.77 23.26 17.93 23.11C17.86 22.91 17.85 22.61 17.93 22.11C17.6 22.03 17.28 21.86 17.22 21.79C17.1 21.65 17.15 21.48 17.35 21.44C17.37 21.44 17.41 21.44 17.45 21.44C17.61 21.44 17.87 21.42 17.99 21.26C18.1 21.12 18.22 21.05 18.33 21.05C18.35 21.05 18.37 21.05 18.39 21.05C18.56 21.07 18.71 21.23 18.77 21.42C18.78 21.46 18.77 21.47 18.78 21.5C19.02 21.48 19.61 21.45 20.12 21.5C20.18 21.28 20.32 21.08 20.5 21.04C20.46 21.04 20.41 21.04 20.37 21.04C20.15 21.01 20.08 20.78 20.11 20.53C19.92 20.53 19.71 20.55 19.45 20.58C19.2 20.55 18.99 20.54 18.81 20.53C18.83 20.71 18.79 20.89 18.67 20.99C18.61 21.03 18.52 21.05 18.4 21.04C18.38 21.04 18.36 21.04 18.34 21.04C17.94 21.01 17.35 20.8 17.23 20.66C17.11 20.53 17.16 20.35 17.36 20.31C17.46 20.29 17.8 20.31 17.96 20.15C17.91 19.96 17.91 19.65 17.96 19.17C17.39 19.02 16.82 18.59 17.36 18.49C17.38 18.49 17.42 18.49 17.46 18.49C17.62 18.48 17.88 18.47 18 18.31C18.1 18.17 18.21 18.11 18.32 18.1C17.68 18.07 16.66 17.5 17.36 17.37C17.45 17.35 17.78 17.37 17.95 17.23C17.87 17.01 17.9 16.68 17.95 16.23C17.5 16.13 17.07 15.89 17.18 15.67C17.3 15.44 17.79 15.64 17.99 15.37C18.09 15.24 18.2 15.17 18.31 15.16C17.67 15.16 16.7 14.55 17.35 14.43C17.44 14.41 17.78 14.43 17.94 14.28C17.86 14.05 17.89 13.72 17.94 13.27C17.79 13.23 17.63 13.18 17.43 13.09C17.25 13.01 17.08 12.88 17.17 12.71C17.29 12.48 17.78 12.69 17.98 12.42C18.09 12.27 18.21 12.21 18.32 12.21C17.92 12.18 17.33 11.96 17.21 11.82C16.96 11.54 17.26 11.49 17.55 11.43C17.7 11.4 17.84 11.38 17.92 11.32C17.85 11.1 17.88 10.77 17.92 10.33L17.93 10.36ZM18.64 12.18C18.58 12.23 18.47 12.24 18.34 12.23C18.54 12.25 18.7 12.46 18.77 12.69C19.18 12.64 19.68 12.64 20.09 12.69C20.09 12.66 20.09 12.63 20.11 12.6C20.17 12.4 20.32 12.25 20.49 12.22C20.38 12.22 20.28 12.21 20.22 12.17C20.11 12.09 20.06 11.94 20.06 11.78C19.75 11.81 19.34 11.8 18.79 11.76C18.79 11.93 18.75 12.09 18.64 12.17V12.18ZM71.5 28.31H87.43V23.23H71.5V28.31ZM207.24 28.31H223.15V23.23H207.24V28.31ZM18.73 17.93C18.69 18.07 18.55 18.13 18.37 18.13C18.35 18.13 18.32 18.13 18.3 18.13H18.37C18.55 18.15 18.7 18.31 18.75 18.51C18.76 18.54 18.76 18.56 18.77 18.6C19.19 18.55 19.69 18.55 20.1 18.6C20.1 18.57 20.1 18.55 20.12 18.52C20.18 18.32 20.33 18.16 20.51 18.14C20.33 18.14 20.19 18.08 20.15 17.94C20.12 17.85 20.11 17.77 20.1 17.69C19.78 17.72 19.35 17.71 18.78 17.67C18.78 17.76 18.76 17.85 18.73 17.94V17.93ZM17.93 25.08C17.75 25.03 17.57 24.97 17.43 24.91C17.03 24.73 17.11 24.47 17.34 24.43C17.36 24.43 17.4 24.43 17.44 24.43C17.6 24.43 17.86 24.41 17.98 24.25C18.27 23.86 18.66 24.07 18.76 24.41C18.76 24.43 18.76 24.46 18.77 24.49C19.01 24.47 19.61 24.45 20.11 24.49C20.22 24.11 20.56 23.79 20.9 24.24C21.01 24.39 21.28 24.41 21.44 24.42C21.48 24.42 21.52 24.42 21.54 24.42C21.74 24.46 21.78 24.63 21.66 24.77C21.57 24.87 21.25 25 20.93 25.09C20.99 25.58 20.99 25.9 20.93 26.09C21.14 26.29 21.59 26.16 21.7 26.36C21.79 26.52 21.62 26.65 21.44 26.74C20.36 27.22 20.03 26.86 20.06 26.46C19.88 26.47 19.68 26.48 19.44 26.51C19.2 26.48 18.99 26.47 18.8 26.47C18.82 26.65 18.78 26.83 18.66 26.92C18.6 26.96 18.51 26.98 18.39 26.97C18.37 26.97 18.35 26.97 18.32 26.97C17.92 26.94 17.34 26.72 17.21 26.58C17.09 26.45 17.14 26.27 17.34 26.23C17.43 26.21 17.77 26.23 17.93 26.08C17.86 25.88 17.85 25.57 17.93 25.07V25.08ZM20.52 29.91C20.52 29.91 20.48 29.91 20.47 29.91C20.47 29.91 20.4 29.91 20.37 29.91C20.21 29.89 20.11 29.68 20.11 29.45C19.81 29.47 19.55 29.45 19.55 29.45C19.25 29.43 19.01 29.43 18.8 29.43C18.87 30.35 17.38 29.72 17.23 29.55C16.98 29.27 17.27 29.22 17.57 29.16C17.72 29.13 17.88 29.1 17.96 29.04C17.91 28.84 17.91 28.53 17.96 28.07C17.51 27.96 17.08 27.68 17.19 27.48C17.29 27.28 17.86 27.37 18 27.19C18.11 27.05 18.23 26.98 18.34 26.98H18.41C18.58 27.01 18.73 27.16 18.78 27.36C18.79 27.39 18.79 27.41 18.8 27.44C19.22 27.39 19.72 27.39 20.14 27.44C20.14 27.41 20.14 27.38 20.15 27.36C20.25 27.01 20.63 26.81 20.93 27.2C21.07 27.39 21.64 27.3 21.74 27.49C21.86 27.73 21.41 27.94 20.97 28.04C21.02 28.49 21.05 28.83 20.97 29.05C21.14 29.19 21.47 29.18 21.56 29.2C22.14 29.31 21.4 29.9 20.59 29.92C20.7 29.92 20.81 29.99 20.93 30.14C21.04 30.29 21.31 30.31 21.47 30.32C21.51 30.32 21.55 30.32 21.57 30.32C22.09 30.42 21.61 30.85 20.96 31C21.02 31.48 21.02 31.8 20.96 31.99C21.12 32.14 21.46 32.13 21.56 32.14C22.14 32.25 21.41 32.85 20.6 32.87H20.56C20.5 32.87 20.44 32.87 20.38 32.87C20.15 32.85 20.08 32.61 20.11 32.36C19.92 32.37 19.72 32.38 19.46 32.41C19.2 32.38 18.99 32.37 18.8 32.36C18.8 32.46 18.79 32.56 18.76 32.68C18.63 33.12 17.42 32.69 17.24 32.5C16.99 32.22 17.28 32.16 17.58 32.11C17.73 32.08 17.89 32.06 17.97 31.99C17.92 31.79 17.92 31.48 17.97 30.99C17.65 30.91 17.33 30.78 17.24 30.67C16.99 30.39 17.29 30.34 17.58 30.29C17.76 30.26 17.94 30.22 18 30.14C18.29 29.75 18.68 29.96 18.78 30.3C18.78 30.33 18.78 30.36 18.79 30.39C19.21 30.34 19.73 30.34 20.15 30.39C20.22 30.15 20.36 29.95 20.54 29.92L20.52 29.91ZM20.52 29.91H20.54H20.56C20.56 29.91 20.53 29.91 20.52 29.91ZM20.54 32.87C20.54 32.87 20.52 32.87 20.5 32.87C20.32 32.91 20.17 33.07 20.12 33.25C20.12 33.28 20.12 33.3 20.12 33.33C19.7 33.28 19.19 33.28 18.78 33.33C18.78 33.3 18.78 33.28 18.77 33.24C18.67 32.89 18.29 32.69 17.99 33.08C17.93 33.16 17.75 33.19 17.57 33.23C17.27 33.28 16.98 33.34 17.23 33.61C17.3 33.69 17.62 33.85 17.96 33.94C17.91 34.42 17.91 34.73 17.96 34.92C17.79 35.07 17.28 35.01 17.19 35.19C17.1 35.35 17.27 35.49 17.45 35.57C17.81 35.73 18.46 35.91 18.67 35.76C18.75 35.7 18.8 35.49 18.8 35.29C18.99 35.29 19.2 35.31 19.46 35.34C19.53 35.34 19.59 35.34 19.67 35.34C19.77 35.34 19.9 35.35 20.09 35.34C20.06 36.46 22.49 35.26 21.55 35.08C21.45 35.06 21.12 35.08 20.96 34.93C21.03 34.71 21.01 34.38 20.96 33.94C21.28 33.86 21.59 33.71 21.68 33.6C21.8 33.47 21.75 33.29 21.56 33.25C21.54 33.25 21.5 33.25 21.46 33.25C21.3 33.24 21.03 33.23 20.92 33.07C20.84 32.96 20.74 32.86 20.6 32.86H20.56L20.54 32.87ZM28.48 36.05C27.18 35.61 25.81 35.47 24.59 35.85C21.38 36.96 20.75 39.59 19.43 43.95C19.43 44.05 19.36 44.06 19.36 43.96C18.27 40.3 17.57 37 14.19 35.85C13 35.48 11.68 35.6 10.41 36.01C10.07 36.67 9.25001 38.45 9.07001 40.83C8.85001 43.87 7.99001 49.94 7.99001 49.94H30.88C30.88 49.94 30.02 43.86 29.8 40.83C29.63 38.5 28.84 36.74 28.48 36.05Z" fill="white"/>
</svg>
